<!--?xml version="1.0" encoding="utf-8"?-->
<!-- Generator: Adobe Illustrator 18.1.1, SVG Export Plug-In . SVG Version: 6.00 Build 0)  -->

<svg version="1.1" id="_x32_" xmlns="http://www.w3.org/2000/svg" xmlns:xlink="http://www.w3.org/1999/xlink" x="0px" y="0px" viewBox="0 0 512 512" style="width: 32px; height: 32px; opacity: 1;" xml:space="preserve">
<style type="text/css">
	.st0{fill:#4B4B4B;}
</style>
<g>
	<path class="st0" d="M256.732,145.122c40.064,0,72.557-32.492,72.557-72.557C329.289,32.476,296.796,0,256.732,0
		c-40.073,0-72.565,32.476-72.565,72.565C184.167,112.629,216.659,145.122,256.732,145.122z" style="fill: rgb(75, 75, 75);"></path>
	<path class="st0" d="M345.668,453.857h-9.864c-10.091,0-18.282-8.182-18.282-18.282V188.209c0-3.356-1.754-6.476-4.639-8.214
		c-2.86-1.739-6.435-1.82-9.401-0.26l-124.678,69.291c-36.279,18.135-18.875,39.796-5.363,39.252
		c13.504-0.56,53.731-4.517,53.731-4.517v151.816c0,10.1-8.19,18.282-18.281,18.282h-19.362c-5.045,0-9.14,4.095-9.14,9.14v39.87
		c0,5.038,4.095,9.133,9.14,9.133h156.139c5.046,0,9.141-4.095,9.141-9.133v-39.87C354.81,457.952,350.714,453.857,345.668,453.857z
		" style="fill: rgb(75, 75, 75);"></path>
</g>
</svg>
