<!--?xml version="1.0" encoding="utf-8"?-->
<!-- Generator: Adobe Illustrator 18.1.1, SVG Export Plug-In . SVG Version: 6.00 Build 0)  -->

<svg version="1.1" id="_x32_" xmlns="http://www.w3.org/2000/svg" xmlns:xlink="http://www.w3.org/1999/xlink" x="0px" y="0px" viewBox="0 0 512 512" style="width: 32px; height: 32px; opacity: 1;" xml:space="preserve">
<style type="text/css">
	.st0{fill:#4B4B4B;}
</style>
<g>
	<path class="st0" d="M506.997,214.215c-5.206-7.664-13.721-12.236-22.784-12.236H204.889c-15.554,0-29.453,9.986-34.787,25.018
		L131.04,339.835c-1.205,3.486-3.985,6.194-7.504,7.31c-3.519,1.109-7.343,0.498-10.332-1.654l-5.784-4.162
		c-4.997-3.599-7.054-10.051-5.045-15.875l39.431-115.279c8.146-22.888,29.517-38.274,53.201-38.274h173.871l-5.833-18.446
		c-4.965-15.722-19.186-26.359-35.237-26.359H135.989c-11.489,0-21.932-6.837-26.818-17.546
		c-5.801-12.71-18.221-20.824-31.862-20.824H27.788c-8.902,0-17.256,4.394-22.495,11.81c-5.222,7.423-6.684,16.975-3.92,25.692
		l83.923,273.066c4.515,14.276,17.77,23.981,32.746,23.981h299.442c14.525,0,27.492-9.142,32.361-22.832l60.464-159.988
		C513.425,231.673,512.188,221.88,506.997,214.215z" style="fill: rgb(75, 75, 75);"></path>
</g>
</svg>
