<!--?xml version="1.0" encoding="utf-8"?-->
<!-- Generator: Adobe Illustrator 15.1.0, SVG Export Plug-In . SVG Version: 6.00 Build 0)  -->

<svg version="1.1" id="_x32_" xmlns="http://www.w3.org/2000/svg" xmlns:xlink="http://www.w3.org/1999/xlink" x="0px" y="0px" width="512px" height="512px" viewBox="0 0 512 512" style="width: 32px; height: 32px; opacity: 1;" xml:space="preserve">
<style type="text/css">

	.st0{fill:#4B4B4B;}

</style>
<g>
	<path class="st0" d="M499.516,439.313l-79.547-79.563l-60.219,60.219l79.547,79.563c8.047,8.031,18.75,12.453,30.125,12.469
		c11.359-0.016,22.063-4.438,30.094-12.469c8.047-8.047,12.484-18.75,12.484-30.109C512,458.031,507.563,447.344,499.516,439.313z" style="fill: rgb(75, 75, 75);"></path>
	<path class="st0" d="M399.391,362.297L358,320.906c0.063-0.078,0.063-0.188,0.125-0.25c26.563-34.719,41.156-77.703,41.125-121.047
		c0.063-53.266-20.703-103.422-58.453-141.156C303.109,20.766,253.063,0,199.375,0C146.188,0,96.141,20.766,58.453,58.453
		C20.719,96.188-0.047,146.344,0,199.641c-0.047,53.281,20.719,103.422,58.453,141.156c37.703,37.688,87.766,58.453,141.188,58.453
		h0.188c43.234,0,86.141-14.594,120.844-41.125c0.063-0.063,0.156-0.094,0.219-0.141l41.422,41.422L399.391,362.297z
		 M294.703,294.688c-25.391,25.344-59.141,39.328-95.094,39.391c-35.922-0.063-69.672-14.047-95.047-39.391
		c-25.344-25.359-39.344-59.125-39.391-95.063c0.047-35.938,14.047-69.688,39.375-95.063c25.375-25.344,59.141-39.328,95.078-39.391
		h0.016c35.938,0.063,69.672,14.047,95.063,39.391c25.328,25.359,39.328,59.109,39.375,95.078
		C334.031,235.578,320.031,269.344,294.703,294.688z" style="fill: rgb(75, 75, 75);"></path>
	<path class="st0" d="M266.781,180.031H132.484c-10.828,0-19.594,8.781-19.594,19.594s8.766,19.594,19.594,19.594h134.297
		c10.813,0,19.594-8.781,19.594-19.594S277.594,180.031,266.781,180.031z" style="fill: rgb(75, 75, 75);"></path>
</g>
</svg>
