<!--?xml version="1.0" encoding="utf-8"?-->
<!-- Generator: Adobe Illustrator 18.1.1, SVG Export Plug-In . SVG Version: 6.00 Build 0)  -->

<svg version="1.1" id="_x32_" xmlns="http://www.w3.org/2000/svg" xmlns:xlink="http://www.w3.org/1999/xlink" x="0px" y="0px" viewBox="0 0 512 512" style="width: 32px; height: 32px; opacity: 1;" xml:space="preserve">
<style type="text/css">
	.st0{fill:#4B4B4B;}
</style>
<g>
	<path class="st0" d="M116.432,392.022h171.717c2.471-7.202,5.6-14.106,9.454-20.584h-181.17V392.022z" style="fill: rgb(75, 75, 75);"></path>
	<rect x="116.418" y="288.04" class="st0" width="215.202" height="20.563" style="fill: rgb(75, 75, 75);"></rect>
	<rect x="116.418" y="204.655" class="st0" width="215.202" height="20.569" style="fill: rgb(75, 75, 75);"></rect>
	<rect x="230.187" y="121.277" class="st0" width="101.433" height="20.562" style="fill: rgb(75, 75, 75);"></rect>
	<path class="st0" d="M77.375,457.772c-10.619,0-19.202-8.58-19.202-19.199V165.832h117.388c12.945,0,23.492-10.548,23.492-23.566
		V24.661h171.646c10.544,0,19.198,8.579,19.198,19.198v271.945c1.673-0.149,3.274-0.149,4.947-0.149
		c6.765,0,13.31,0.583,19.71,1.748V43.859c0-24.22-19.71-43.859-43.855-43.859H192.725c-12.799,0-25.094,5.022-34.111,14.114
		L47.625,125.098c-9.092,9.021-14.11,21.316-14.11,34.115v279.36c0,24.22,19.639,43.852,43.859,43.852h218.555
		c-4.219-7.707-7.564-15.995-9.891-24.653H77.375z M177.159,30.478v98.619c0,10.626-4.144,14.767-14.837,14.767h-98.62
		L177.159,30.478z" style="fill: rgb(75, 75, 75);"></path>
	<path class="st0" d="M394.844,344.719c-46.192,0-83.641,37.446-83.641,83.641c0,46.196,37.448,83.64,83.641,83.64
		c46.192,0,83.64-37.445,83.64-83.64C478.485,382.164,441.036,344.719,394.844,344.719z M448.881,401.072l-44.655,54.15
		c-2.826,3.565-7.003,5.802-11.534,6.186c-4.535,0.383-9.027-1.122-12.411-4.17l-27.132-24.383
		c-2.042-1.833-3.267-4.396-3.406-7.138c-0.142-2.734,0.817-5.419,2.657-7.45l3.65-4.027c1.847-2.032,4.425-3.246,7.17-3.374
		c2.745-0.121,5.426,0.852,7.447,2.714l22.661,20.846l45.979-42.473c2.586-2.266,6.464-2.195,8.95,0.191
		C450.745,394.508,451.012,398.394,448.881,401.072z" style="fill: rgb(75, 75, 75);"></path>
</g>
</svg>
